<svg xmlns="http://www.w3.org/2000/svg" viewBox="0 0 4603.21 530.24"><defs><style>.cls-1{fill:#c30a16;}.cls-1,.cls-2,.cls-3,.cls-4{fill-rule:evenodd;}.cls-2{fill:#e63149;}.cls-3{fill:#00549a;}.cls-4{fill:#00417a;}</style></defs><g id="Layer_2" data-name="Layer 2"><g id="Layer_1-2" data-name="Layer 1"><polygon class="cls-1" points="458.01 159.87 388.17 117.68 245.81 159.87 351.91 319.74 458.01 159.87"/><polygon class="cls-2" points="351.91 0 751.76 0 645.65 159.87 245.81 159.87 351.91 0"/><polygon class="cls-2" points="212.21 530.24 10.74 530.24 0 530.24 114.7 357.42 125.44 357.42 326.9 357.42 212.21 530.24"/><polygon class="cls-3" points="452.22 530.24 566.91 357.42 677.54 357.42 783.64 197.55 673.02 197.55 493.19 197.55 481.39 197.55 260.58 530.24 452.22 530.24"/><polygon class="cls-4" points="452.22 530.24 566.91 357.42 375.29 357.42 260.59 530.24 452.22 530.24"/><path class="cls-3" d="M1214.35,68.49C1181.52,57.74,1132.59,50,1087.24,50,970.87,50,910,87.58,910,185.45c0,77,43,105.63,134.86,114.58,80,7.16,94.89,26.85,94.89,57.89,0,43-29.83,54.9-96.08,54.9-40.58,0-84.74-6.57-111-14.92l-17.31,68c33.42,11.33,83.54,18.5,129.49,18.5,120,0,179.63-32.82,179.63-130.69,0-78.77-43-114.58-139.64-124.72-75.79-7.17-91.3-21.49-91.3-53.11,0-40.59,27.45-54.31,93.69-54.31,41.77,0,86.52,6.56,109.8,14.92l17.31-68Zm309.72,340.74c-23.88,7.16-63.86,12.54-85.34,12.54-53.11,0-78.18-13.13-78.77-78.18H1556.3c5.36-147.4-36.41-180.22-132.49-180.22-88.32,0-141.43,37.6-141.43,159.34,0,124.72,59.68,161.72,147.4,161.72,31,0,75.79-6.57,106.22-16.71l-11.93-58.49ZM1428,221.85c42.37,0,57.89,11.34,60.27,65H1360.55c4.78-50.13,20.89-65,67.44-65Zm268.54,15.52a204,204,0,0,1,50.73-7.16c48.93,0,60.87,16.71,60.87,84.14V476.07h74V306.59c0-27.45-3-50.13-8.36-68,19.7-6,44.17-8.35,59.09-8.35,48.93,0,60.87,16.71,60.87,84.14V476.07h74V306.59c0-109.2-34-143.22-119.36-143.22-34.61,0-75.19,8.35-108,20.29-17.9-13.73-43.57-20.29-77.58-20.29-48.34,0-103.24,11.94-140.24,26.26V476.07h74V237.37Zm525.75-65.05h-74V476.07h74V172.32ZM2185.87,45.81c-32.82,0-43,4.77-43,36.4,0,35.21,10.14,41.18,43,41.18,32.23,0,42.38-6,42.38-41.18,0-31.63-10.15-36.4-42.38-36.4Zm334.19,359.85C2501,413.41,2475.3,420,2449.64,420c-53.71,0-79.37-15.52-79.37-96.08,0-84.15,25.66-96.08,79.37-96.08,24.47,0,51.32,6,70.42,13.13l16.71-63.26c-22.68-8.35-63.26-14.32-92.5-14.32-91.9,0-150.38,35.21-150.38,159.34,0,124.72,57.88,161.72,150.38,161.72,28.64,0,68.63-6,92.5-15.52l-16.71-63.25Zm198.72,78.77c97.87,0,145.61-37,145.61-161.72,0-124.13-48.34-159.34-145.61-159.34-96.08,0-144.41,35.21-144.41,159.34,0,124.72,47.73,161.72,144.41,161.72Zm0-261.38c53.11,0,69.22,13.72,69.22,100.85,0,84.14-16.11,100.85-69.22,100.85-51.92,0-68-16.71-68-100.85,0-87.13,16.11-100.85,68-100.85ZM3010,237.37a205.2,205.2,0,0,1,54.3-7.16c52.52,0,65,16.71,65,84.14V476.07h74V306.59c0-109.2-38.2-143.22-123.53-143.22-48.34,0-106.82,11.94-143.82,26.26V476.07h74V237.37Zm480.38,35.2c14.33,47.75,37,142,48.94,203.5h91.9c39.39-96.08,76.39-205.28,103.83-303.75h-75.18c-17.91,75.79-43,152.17-70.42,228-14.33-65-41.77-168.88-61.47-228h-72.21c-12.53,54.3-44.75,167.09-65.64,228-19.09-78.17-44.16-161.12-69.22-228h-78.18c35.21,93.09,68.63,198.13,97.87,303.75h91.31c19.09-54.9,44.15-140.24,58.47-203.5Zm542.46,9c0-90.71-41.18-118.16-131.29-118.16-43.56,0-89.51,7.76-121.13,16.11l13.72,60.87c25.07-8.95,58.48-14.92,91.9-14.92,63.26,0,75.78,13.13,75.78,66.25-25.65-5.38-49.52-8.36-75.19-8.36-71,0-119.34,13.73-119.34,99.66,0,79.36,32.22,101.45,128.3,101.45,42.37,0,99.06-8.95,137.25-23.87v-179Zm-71,136.06A193.92,193.92,0,0,1,3901,427.74c-44.76,0-56.1-6.57-56.1-47.75,0-38.79,14.92-43.56,56.69-43.56,22.08,0,43.57,1.79,60.27,5.37v75.79Zm151.58,58.48h74V265.41c0-22.07,32.81-34,69.81-34a192.84,192.84,0,0,1,38.79,4.18V165.16a279,279,0,0,0-31-1.79c-43.56,0-66.84,14.92-77.57,31.63V172.32h-74V476.07Zm457.13-66.84c-23.88,7.16-63.86,12.54-85.34,12.54-53.11,0-78.18-13.13-78.77-78.18h196.33c5.37-147.4-36.4-180.22-132.48-180.22-88.32,0-141.43,37.6-141.43,159.34,0,124.72,59.68,161.72,147.4,161.72,31,0,75.79-6.57,106.22-16.71l-11.93-58.49Zm-96.08-187.38c42.37,0,57.89,11.34,60.27,65H4407C4411.79,236.77,4427.9,221.85,4474.45,221.85Z"/></g></g></svg>