<svg id="Layer_1" data-name="Layer 1" xmlns="http://www.w3.org/2000/svg" viewBox="0 0 922 196"><defs><style>.cls-1{fill:#c30a16;}.cls-1,.cls-2,.cls-3,.cls-4{fill-rule:evenodd;}.cls-2{fill:#e63149;}.cls-3{fill:#00549a;}.cls-4{fill:#00417a;}</style></defs><polygon class="cls-1" points="150.13 68.22 130.38 56.29 90.1 68.22 120.12 113.45 150.13 68.22"/><polygon class="cls-2" points="120.12 23 233.23 23 203.22 68.22 90.1 68.22 120.12 23"/><polygon class="cls-2" points="80.6 173 23.6 173 20.57 173 53.01 124.11 56.05 124.11 113.04 124.11 80.6 173"/><polygon class="cls-3" points="148.49 173 180.94 124.11 212.23 124.11 242.25 78.89 210.96 78.89 160.08 78.89 156.75 78.89 94.28 173 148.49 173"/><polygon class="cls-4" points="148.49 173 180.94 124.11 126.73 124.11 94.28 173 148.49 173"/><path class="cls-3" d="M322,64.38a75.58,75.58,0,0,0-21.73-3.17c-19.9,0-30.31,6.43-30.31,23.17,0,13.16,7.35,18.06,23.06,19.59,13.68,1.22,16.23,4.59,16.23,9.9,0,7.34-5.1,9.39-16.43,9.39a69.87,69.87,0,0,1-19-2.56l-3,11.64c5.72,1.94,14.29,3.16,22.14,3.16,20.51,0,30.72-5.61,30.72-22.35,0-13.47-7.35-19.59-23.88-21.32-13-1.23-15.61-3.68-15.61-9.09,0-6.94,4.69-9.28,16-9.28,7.14,0,14.79,1.12,18.77,2.55l3-11.63Zm53,58.26a62.74,62.74,0,0,1-14.59,2.15c-9.08,0-13.37-2.25-13.47-13.37h33.57c.92-25.21-6.22-30.82-22.65-30.82-15.1,0-24.18,6.43-24.18,27.25,0,21.32,10.2,27.65,25.2,27.65A65.35,65.35,0,0,0,377,132.64l-2.05-10Zm-16.42-32c7.24,0,9.89,1.94,10.3,11.12H347c.82-8.57,3.58-11.12,11.54-11.12Zm45.91,2.66A34.71,34.71,0,0,1,413.09,92c8.36,0,10.41,2.86,10.41,14.39v27.65h12.65v-29a41,41,0,0,0-1.43-11.63A38.73,38.73,0,0,1,444.82,92c8.37,0,10.41,2.86,10.41,14.39v27.65h12.65v-29c0-18.67-5.81-24.49-20.4-24.49A57.48,57.48,0,0,0,429,84.07c-3.06-2.35-7.45-3.47-13.27-3.47a72.18,72.18,0,0,0-24,4.49v49h12.65V93.26Zm89.9-11.13H481.66v51.94h12.65V82.13ZM488.09,60.5c-5.61,0-7.35.82-7.35,6.22,0,6,1.74,7,7.35,7s7.24-1,7.24-7c0-5.4-1.73-6.22-7.24-6.22ZM545.23,122a33.12,33.12,0,0,1-12,2.45c-9.18,0-13.57-2.65-13.57-16.43,0-14.39,4.39-16.43,13.57-16.43a36.49,36.49,0,0,1,12,2.25l2.86-10.82a54.12,54.12,0,0,0-15.82-2.45c-15.71,0-25.71,6-25.71,27.25s9.9,27.65,25.71,27.65c4.9,0,11.74-1,15.82-2.65L545.23,122Zm34,13.47c16.74,0,24.9-6.33,24.9-27.65s-8.27-27.25-24.9-27.25c-16.43,0-24.69,6-24.69,27.25s8.16,27.65,24.69,27.65Zm0-44.69c9.08,0,11.84,2.34,11.84,17.24,0,14.39-2.76,17.25-11.84,17.25-8.88,0-11.63-2.86-11.63-17.25,0-14.9,2.75-17.24,11.63-17.24ZM629,93.26A35,35,0,0,1,638.29,92c9,0,11.13,2.86,11.13,14.39v27.65h12.65v-29c0-18.67-6.53-24.49-21.12-24.49a75.93,75.93,0,0,0-24.6,4.49v49H629V93.26Zm82.14,6c2.45,8.17,6.33,24.29,8.37,34.8h15.71A487.26,487.26,0,0,0,753,82.13H740.13a356.5,356.5,0,0,1-12,39c-2.45-11.12-7.14-28.88-10.51-39H705.23c-2.14,9.29-7.65,28.57-11.22,39a359.27,359.27,0,0,0-11.84-39H668.8c6,15.92,11.74,33.88,16.74,51.94h15.61c3.27-9.39,7.55-24,10-34.8Zm92.76,1.54c0-15.51-7-20.21-22.45-20.21a86.29,86.29,0,0,0-20.72,2.76l2.35,10.4a48.77,48.77,0,0,1,15.71-2.55c10.82,0,13,2.25,13,11.33a61.11,61.11,0,0,0-12.85-1.43c-12.15,0-20.41,2.35-20.41,17,0,13.57,5.51,17.35,21.94,17.35,7.24,0,16.94-1.53,23.47-4.08V100.81Zm-12.15,23.26a33.18,33.18,0,0,1-10.41,1.74c-7.65,0-9.59-1.13-9.59-8.17,0-6.63,2.55-7.45,9.7-7.45a51.63,51.63,0,0,1,10.3.92v13Zm25.92,10h12.66v-36c0-3.77,5.61-5.82,11.93-5.82a32.94,32.94,0,0,1,6.64.72v-12a46.3,46.3,0,0,0-5.31-.31c-7.45,0-11.43,2.55-13.26,5.41V82.13H817.68v51.94Zm78.17-11.43a62.9,62.9,0,0,1-14.6,2.15c-9.08,0-13.36-2.25-13.46-13.37h33.57c.91-25.21-6.23-30.82-22.66-30.82-15.1,0-24.18,6.43-24.18,27.25,0,21.32,10.2,27.65,25.2,27.65a65.35,65.35,0,0,0,18.17-2.86l-2-10Zm-16.43-32c7.24,0,9.9,1.94,10.3,11.12H867.89C868.7,93.15,871.46,90.6,879.42,90.6Z"/></svg>