<?xml version="1.0" encoding="UTF-8"?>
<svg version="1.1" xmlns="http://www.w3.org/2000/svg" width="800px" height="300px" viewBox="0 0 500 127">

  <!-- Same paths but in white color -->
  <path d="M0,0 L1,0 L1,1 L2,1 L2,3 L3,3 L3,5 L4,5 L4,7 L5,7 L5,9 L6,9 L6,11 L7,11 L7,13 L8,13 L8,15 L9,15 L9,17 L10,17 L10,19 L11,19 L11,21 L12,21 L12,23 L13,23 L13,25 L14,25 L14,27 L15,27 L15,29 L16,29 L16,31 L17,31 L17,33 L18,33 L18,35 L19,35 L19,37 L20,37 L20,39 L21,39 L21,41 L22,41 L22,43 L23,43 L23,45 L24,45 L24,47 L25,47 L25,49 L26,49 L26,51 L27,51 L27,53 L28,53 L28,55 L29,55 L29,57 L30,57 L30,59 L31,59 L31,61 L32,61 L32,63 L33,63 L33,65 L34,65 L34,67 L35,67 L35,69 L36,69 L36,71 L37,71 L37,74 L38,74 L38,76 L39,76 L39,78 L40,78 L40,80 L41,80 L41,82 L42,82 L42,84 L43,84 L43,86 L44,86 L44,88 L45,88 L45,90 L46,90 L46,92 L47,92 L47,94 L48,94 L48,96 L49,96 L49,98 L50,98 L50,100 L51,100 L51,102 L52,102 L52,104 L53,104 L53,106 L54,106 L54,108 L55,108 L55,110 L56,110 L56,112 L57,112 L57,113 L50,113 L50,112 L46,112 L46,111 L43,111 L43,110 L41,110 L41,109 L39,109 L39,108 L37,108 L37,107 L35,107 L35,106 L34,106 L34,105 L32,105 L32,104 L31,104 L31,103 L29,103 L29,102 L28,102 L28,101 L27,101 L27,100 L25,100 L25,99 L24,99 L24,98 L22,98 L22,97 L20,97 L20,96 L19,96 L19,95 L17,95 L17,94 L15,94 L15,93 L12,93 L12,92 L9,92 L9,91 L5,91 L5,90 L-6,90 L-6,91 L-10,91 L-10,92 L-13,92 L-13,93 L-15,93 L-15,94 L-17,94 L-17,95 L-19,95 L-19,96 L-21,96 L-21,97 L-22,97 L-22,98 L-23,98 L-23,99 L-25,99 L-25,100 L-26,100 L-26,101 L-28,101 L-28,102 L-29,102 L-29,103 L-31,103 L-31,104 L-32,104 L-32,105 L-33,105 L-33,106 L-35,106 L-35,107 L-37,107 L-37,108 L-39,108 L-39,109 L-40,109 L-40,110 L-43,110 L-43,111 L-46,111 L-46,112 L-51,112 L-51,113 L-57,113 L-57,110 L-56,110 L-56,108 L-55,108 L-55,107 L-54,107 L-54,105 L-53,105 L-53,104 L-52,104 L-52,102 L-51,102 L-51,100 L-50,100 L-50,99 L-49,99 L-49,97 L-48,97 L-48,96 L-47,96 L-47,95 L-46,95 L-46,93 L-45,93 L-45,92 L-44,92 L-44,91 L-43,91 L-43,89 L-42,89 L-42,88 L-41,88 L-41,87 L-40,87 L-40,86 L-39,86 L-39,85 L-38,85 L-38,83 L-37,83 L-37,82 L-36,82 L-36,81 L-35,81 L-35,80 L-34,80 L-34,79 L-33,79 L-33,78 L-32,78 L-32,77 L-31,77 L-31,76 L-29,76 L-29,75 L-28,75 L-28,74 L-27,74 L-27,73 L-26,73 L-26,72 L-24,72 L-24,71 L-23,71 L-23,70 L-21,70 L-21,69 L-19,69 L-19,68 L-17,68 L-17,67 L-15,67 L-15,66 L-13,66 L-13,65 L-9,65 L-9,64 L4,64 L4,65 L7,65 L7,66 L10,66 L10,67 L12,67 L12,68 L14,68 L14,67 L13,67 L13,65 L12,65 L12,63 L11,63 L11,61 L10,61 L10,60 L9,60 L9,58 L8,58 L8,57 L7,57 L7,56 L6,56 L6,55 L5,55 L5,54 L3,54 L3,53 L1,53 L1,52 L-1,52 L-1,51 L-4,51 L-4,50 L-12,50 L-12,49 L-14,49 L-14,48 L-15,48 L-15,46 L-16,46 L-16,41 L-17,41 L-17,40 L-16,40 L-16,34 L-15,34 L-15,31 L-14,31 L-14,28 L-13,28 L-13,25 L-12,25 L-12,23 L-11,23 L-11,21 L-10,21 L-10,19 L-9,19 L-9,17 L-8,17 L-8,15 L-7,15 L-7,13 L-6,13 L-6,11 L-5,11 L-5,9 L-4,9 L-4,7 L-3,7 L-3,5 L-2,5 L-2,3 L-1,3 L-1,2 L0,2 Z " fill="#FFFFFF" transform="translate(77,7)"/>
  <path d="M0,0 L8,0 L8,1 L9,1 L9,2 L10,2 L10,4 L12,4 L12,3 L14,3 L14,2 L15,2 L15,1 L18,1 L18,0 L28,0 L28,1 L30,1 L30,2 L32,2 L32,3 L33,3 L33,4 L35,4 L35,6 L36,6 L36,7 L37,7 L37,8 L38,8 L38,7 L39,7 L39,6 L40,6 L40,5 L41,5 L41,4 L42,4 L42,3 L43,3 L43,2 L45,2 L45,1 L48,1 L48,0 L59,0 L59,1 L61,1 L61,2 L63,2 L63,3 L64,3 L64,4 L66,4 L66,5 L67,5 L67,7 L68,7 L68,8 L69,8 L69,10 L70,10 L70,12 L71,12 L71,15 L72,15 L72,20 L73,20 L73,50 L72,50 L72,52 L71,52 L71,53 L70,53 L70,54 L67,54 L67,55 L65,55 L65,54 L62,54 L62,53 L61,53 L61,51 L60,51 L60,23 L59,23 L59,19 L58,19 L58,17 L57,17 L57,15 L56,15 L56,14 L55,14 L55,13 L53,13 L53,12 L49,12 L49,13 L47,13 L47,14 L45,14 L45,16 L44,16 L44,17 L43,17 L43,20 L42,20 L42,50 L41,50 L41,52 L40,52 L40,53 L39,53 L39,54 L36,54 L36,55 L34,55 L34,54 L31,54 L31,53 L30,53 L30,52 L29,52 L29,24 L28,24 L28,19 L27,19 L27,17 L26,17 L26,15 L25,15 L25,14 L24,14 L24,13 L22,13 L22,12 L18,12 L18,13 L15,13 L15,14 L14,14 L14,15 L13,15 L13,17 L12,17 L12,19 L11,19 L11,50 L10,50 L10,52 L9,52 L9,53 L8,53 L8,54 L5,54 L5,55 L3,55 L3,54 L0,54 L0,53 L-1,53 L-1,52 L-2,52 L-2,48 L-3,48 L-3,6 L-2,6 L-2,2 L-1,2 L-1,1 L0,1 Z " fill="#FFFFFF" transform="translate(280,48)"/>
  <path d="M0,0 L6,0 L6,1 L7,1 L7,2 L8,2 L8,3 L9,3 L9,5 L10,5 L10,29 L11,29 L11,28 L12,28 L12,27 L13,27 L13,26 L15,26 L15,25 L17,25 L17,24 L20,24 L20,23 L28,23 L28,24 L32,24 L32,25 L34,25 L34,26 L36,26 L36,27 L37,27 L37,28 L39,28 L39,29 L40,29 L40,30 L41,30 L41,31 L42,31 L42,32 L43,32 L43,34 L44,34 L44,35 L45,35 L45,37 L46,37 L46,40 L47,40 L47,43 L48,43 L48,59 L47,59 L47,63 L46,63 L46,65 L45,65 L45,67 L44,67 L44,68 L43,68 L43,70 L42,70 L42,71 L41,71 L41,72 L40,72 L40,73 L39,73 L39,74 L38,74 L38,75 L36,75 L36,76 L35,76 L35,77 L33,77 L33,78 L29,78 L29,79 L19,79 L19,78 L16,78 L16,77 L15,77 L15,76 L13,76 L13,75 L12,75 L12,74 L11,74 L11,73 L9,73 L9,76 L8,76 L8,77 L7,77 L7,78 L4,78 L4,79 L2,79 L2,78 L-1,78 L-1,77 L-2,77 L-2,76 L-3,76 L-3,73 L-4,73 L-4,5 L-3,5 L-3,3 L-2,3 L-2,2 L-1,2 L-1,1 L0,1 Z M21,36 L21,37 L18,37 L18,38 L16,38 L16,39 L15,39 L15,40 L14,40 L14,41 L13,41 L13,42 L12,42 L12,44 L11,44 L11,46 L10,46 L10,56 L11,56 L11,58 L12,58 L12,60 L13,60 L13,61 L14,61 L14,62 L15,62 L15,63 L16,63 L16,64 L17,64 L17,65 L20,65 L20,66 L25,66 L25,65 L27,65 L27,64 L29,64 L29,63 L30,63 L30,62 L31,62 L31,61 L32,61 L32,60 L33,60 L33,58 L34,58 L34,56 L35,56 L35,47 L34,47 L34,44 L33,44 L33,43 L32,43 L32,41 L31,41 L31,40 L30,40 L30,39 L28,39 L28,38 L27,38 L27,37 L23,37 L23,36 Z " fill="#FFFFFF" transform="translate(222,24)"/>
  <path d="M0,0 L13,0 L13,1 L17,1 L17,2 L19,2 L19,3 L21,3 L21,4 L22,4 L22,5 L24,5 L24,6 L25,6 L25,7 L26,7 L26,8 L27,8 L27,10 L28,10 L28,12 L29,12 L29,14 L30,14 L30,18 L31,18 L31,51 L30,51 L30,53 L29,53 L29,54 L26,54 L26,55 L23,55 L23,54 L21,54 L21,53 L20,53 L20,52 L19,52 L19,51 L18,51 L18,49 L16,49 L16,50 L15,50 L15,51 L13,51 L13,52 L12,52 L12,53 L9,53 L9,54 L3,54 L3,55 L0,55 L0,54 L-6,54 L-6,53 L-8,53 L-8,52 L-10,52 L-10,51 L-11,51 L-11,50 L-12,50 L-12,49 L-13,49 L-13,48 L-14,48 L-14,46 L-15,46 L-15,43 L-16,43 L-16,33 L-15,33 L-15,30 L-14,30 L-14,28 L-13,28 L-13,27 L-12,27 L-12,26 L-11,26 L-11,25 L-10,25 L-10,24 L-8,24 L-8,23 L-6,23 L-6,22 L-3,22 L-3,21 L18,21 L18,17 L17,17 L17,16 L16,16 L16,15 L15,15 L15,14 L14,14 L14,13 L12,13 L12,12 L1,12 L1,13 L-2,13 L-2,14 L-4,14 L-4,15 L-6,15 L-6,16 L-10,16 L-10,15 L-12,15 L-12,14 L-13,14 L-13,11 L-14,11 L-14,10 L-13,10 L-13,7 L-12,7 L-12,6 L-11,6 L-11,5 L-10,5 L-10,4 L-8,4 L-8,3 L-6,3 L-6,2 L-3,2 L-3,1 L0,1 Z M2,32 L2,33 L0,33 L0,34 L-2,34 L-2,36 L-3,36 L-3,39 L-2,39 L-2,41 L-1,41 L-1,42 L1,42 L1,43 L9,43 L9,42 L11,42 L11,41 L13,41 L13,40 L14,40 L14,39 L16,39 L16,38 L17,38 L17,36 L18,36 L18,32 Z " fill="#FFFFFF" transform="translate(180,48)"/>
  <path d="M0,0 L7,0 L7,1 L12,1 L12,2 L14,2 L14,3 L17,3 L17,4 L18,4 L18,5 L20,5 L20,6 L21,6 L21,7 L22,7 L22,8 L23,8 L23,9 L24,9 L24,10 L25,10 L25,12 L26,12 L26,14 L27,14 L27,16 L28,16 L28,18 L29,18 L29,23 L30,23 L30,33 L29,33 L29,38 L28,38 L28,40 L27,40 L27,42 L26,42 L26,44 L25,44 L25,46 L24,46 L24,47 L23,47 L23,48 L22,48 L22,49 L21,49 L21,50 L20,50 L20,51 L18,51 L18,52 L17,52 L17,53 L15,53 L15,54 L12,54 L12,55 L8,55 L8,56 L-1,56 L-1,55 L-5,55 L-5,54 L-8,54 L-8,53 L-10,53 L-10,52 L-11,52 L-11,51 L-13,51 L-13,50 L-14,50 L-14,49 L-15,49 L-15,48 L-16,48 L-16,47 L-17,47 L-17,46 L-18,46 L-18,44 L-19,44 L-19,43 L-20,43 L-20,41 L-21,41 L-21,38 L-22,38 L-22,34 L-23,34 L-23,22 L-22,22 L-22,18 L-21,18 L-21,16 L-20,16 L-20,14 L-19,14 L-19,12 L-18,12 L-18,10 L-17,10 L-17,9 L-16,9 L-16,8 L-15,8 L-15,7 L-14,7 L-14,6 L-13,6 L-13,5 L-11,5 L-11,4 L-10,4 L-10,3 L-8,3 L-8,2 L-5,2 L-5,1 L0,1 Z M-1,14 L-1,15 L-3,15 L-3,16 L-5,16 L-5,17 L-6,17 L-6,18 L-7,18 L-7,20 L-8,20 L-8,22 L-9,22 L-9,25 L-10,25 L-10,31 L-9,31 L-9,34 L-8,34 L-8,36 L-7,36 L-7,38 L-6,38 L-6,39 L-5,39 L-5,40 L-4,40 L-4,41 L-2,41 L-2,42 L2,42 L2,43 L5,43 L5,42 L9,42 L9,41 L11,41 L11,40 L12,40 L12,39 L13,39 L13,38 L14,38 L14,36 L15,36 L15,34 L16,34 L16,30 L17,30 L17,26 L16,26 L16,22 L15,22 L15,20 L14,20 L14,18 L13,18 L13,17 L12,17 L12,16 L10,16 L10,15 L8,15 L8,14 Z " fill="#FFFFFF" transform="translate(440,47)"/>
  <path d="M0,0 L7,0 L7,1 L8,1 L8,2 L9,2 L9,4 L10,4 L10,3 L11,3 L11,2 L13,2 L13,1 L16,1 L16,0 L26,0 L26,1 L27,1 L27,2 L28,2 L28,4 L29,4 L29,9 L28,9 L28,11 L26,11 L26,12 L25,12 L25,13 L15,13 L15,14 L14,14 L14,15 L13,15 L13,16 L12,16 L12,17 L11,17 L11,19 L10,19 L10,50 L9,50 L9,52 L8,52 L8,53 L7,53 L7,54 L4,54 L4,55 L2,55 L2,54 L-1,54 L-1,53 L-2,53 L-2,52 L-3,52 L-3,2 L-2,2 L-2,1 L0,1 Z " fill="#FFFFFF" transform="translate(386,48)"/>
  <path d="M0,0 L7,0 L7,1 L9,1 L9,3 L10,3 L10,52 L9,52 L9,54 L8,54 L8,55 L5,55 L5,56 L3,56 L3,55 L0,55 L0,54 L-1,54 L-1,53 L-2,53 L-2,52 L-3,52 L-3,4 L-2,4 L-2,2 L-1,2 L-1,1 L0,1 Z " fill="#FFFFFF" transform="translate(364,47)"/>
  <path d="M0,0 L6,0 L6,1 L7,1 L7,2 L8,2 L8,3 L9,3 L9,4 L10,4 L10,11 L9,11 L9,13 L8,13 L8,14 L6,14 L6,15 L-1,15 L-1,14 L-2,14 L-2,13 L-3,13 L-3,12 L-4,12 L-4,10 L-5,10 L-5,5 L-4,5 L-4,3 L-3,3 L-3,2 L-2,2 L-2,1 L0,1 Z " fill="#FFFFFF" transform="translate(365,24)"/>
</svg>