<?xml version="1.0" encoding="UTF-8"?>
<svg version="1.1" xmlns="http://www.w3.org/2000/svg" width="500px" height="300px" viewBox="0 0 2189 1048">
<path d="M0 0 C0.74446381 0.00359528 1.48892761 0.00719055 2.25595093 0.01089478 C3.0363826 0.01074875 3.81681427 0.01060272 4.62089539 0.01045227 C7.21273534 0.01115158 9.80450432 0.01894481 12.39633179 0.02676392 C14.18852194 0.02862803 15.9807126 0.03005196 17.77290344 0.03105164 C22.49938351 0.03487733 27.22583305 0.04470805 31.95230103 0.05575562 C36.77153104 0.06596863 41.59076596 0.07054902 46.41000366 0.07559204 C55.87290773 0.08633027 65.3357891 0.10340731 74.79867554 0.12442017 C74.80087538 1.57525891 74.80087538 1.57525891 74.80311966 3.05540752 C74.83976964 26.62690242 74.89929123 50.19825583 74.98257828 73.76963329 C75.02233035 85.16874098 75.05474232 96.56778001 75.06967163 107.96694946 C75.08270799 117.90638124 75.10972333 127.8456617 75.1532886 137.78500825 C75.1758587 143.04428473 75.19158889 148.30337489 75.19055939 153.56270409 C75.18981015 158.52122395 75.20786661 163.47933265 75.23984337 168.43774605 C75.24830511 170.2496185 75.25011786 172.06153728 75.24447823 173.87342072 C75.20172529 189.73120047 77.47058976 202.445834 88.11117554 214.81192017 C99.81681394 224.88421368 112.48980811 228.4700624 127.76351929 227.35195923 C136.86609964 226.33425231 144.7314014 222.8587703 151.79867554 217.12442017 C152.42387085 216.62297485 153.04906616 216.12152954 153.69320679 215.60488892 C161.26032886 208.82909987 165.40902719 199.06243385 166.79867554 189.12442017 C167.11071652 183.00121331 167.11050676 176.88306694 167.11752319 170.75308228 C167.12683104 168.88970509 167.13700098 167.02633205 167.14796448 165.16296387 C167.17518194 160.12441007 167.19038937 155.0858841 167.20339251 150.04727626 C167.21905925 144.77417621 167.24583814 139.50113269 167.27142334 134.22807312 C167.31814848 124.25171618 167.35492288 114.27534854 167.38809621 104.29893833 C167.42636191 92.93736301 167.47576041 81.57584454 167.52608037 70.2143172 C167.62930705 46.85105501 167.71712807 23.48776878 167.79867554 0.12442017 C194.19867554 0.12442017 220.59867554 0.12442017 247.79867554 0.12442017 C247.86651207 26.44638767 247.92172685 52.76828391 247.95411205 79.09031677 C247.9695517 91.31330505 247.99058553 103.53623498 248.0249939 115.75918579 C248.05498532 126.41821808 248.07427161 137.07720808 248.08094102 147.73628139 C248.08483681 153.37516454 248.09393151 159.01392677 248.11586571 164.652771 C248.13638503 169.97149283 248.14247841 175.29004513 248.13799858 180.6088028 C248.13881692 182.55006078 248.14468978 184.49132504 248.15629196 186.43254852 C248.33308298 217.56682285 239.2046815 243.22002561 217.36508179 265.62051392 C189.54779642 291.97613568 150.64170011 299.11409627 113.62680054 298.41348267 C78.9009992 297.25205199 44.44347849 286.23114068 19.98226929 260.64785767 C-2.28411938 234.9160382 -6.37124711 205.06248365 -6.33071899 172.10952759 C-6.33207695 170.23718736 -6.33385909 168.3648474 -6.33602905 166.49250793 C-6.34055241 161.45210152 -6.33883608 156.41171578 -6.33564997 151.37130904 C-6.33310475 146.08672645 -6.33546945 140.80214553 -6.33703613 135.51756287 C-6.33884946 126.66051925 -6.33647135 117.803484 -6.33169556 108.94644165 C-6.32623267 98.69649884 -6.32803358 88.44657586 -6.33352196 78.19663352 C-6.33805094 69.38621576 -6.33870536 60.57580399 -6.33608329 51.76538545 C-6.33452214 46.50674095 -6.33432281 41.2481058 -6.33761978 35.9894619 C-6.3404961 31.05886332 -6.3385273 26.12829055 -6.33272552 21.19769478 C-6.33139757 19.38397642 -6.33179264 17.57025591 -6.33398819 15.75653839 C-6.33669775 13.29219629 -6.33332126 10.82793834 -6.32830811 8.36360168 C-6.33053883 7.63678403 -6.33276955 6.90996637 -6.33506787 6.16112393 C-6.31135892 0.20419666 -5.94036166 0.01210662 0 0 Z " fill="#FFFFFF" transform="translate(266.2013244628906,215.87557983398438)"/>
<path d="M0 0 C7.88556326 6.65817282 13.21445115 14.3117148 17.83203125 23.546875 C18.16203125 11.996875 18.49203125 0.446875 18.83203125 -11.453125 C45.23203125 -11.453125 71.63203125 -11.453125 98.83203125 -11.453125 C98.83203125 61.146875 98.83203125 133.746875 98.83203125 208.546875 C72.76203125 208.546875 46.69203125 208.546875 19.83203125 208.546875 C19.50203125 196.996875 19.17203125 185.446875 18.83203125 173.546875 C16.85203125 177.176875 14.87203125 180.806875 12.83203125 184.546875 C10.09696068 188.16124068 7.02647296 191.33538111 3.83203125 194.546875 C3.31382812 195.09988281 2.795625 195.65289062 2.26171875 196.22265625 C-10.42474413 208.54380214 -28.843781 212.07982558 -45.79785156 211.96484375 C-65.19161502 211.43550186 -82.78744073 204.74164018 -97.16796875 191.546875 C-97.92335938 190.88300781 -98.67875 190.21914063 -99.45703125 189.53515625 C-120.99865311 169.51107133 -129.00527974 138.31383596 -130.33642578 109.95849609 C-131.46136622 73.87097149 -127.18266496 37.3098829 -101.44140625 9.85546875 C-74.76998007 -17.22840217 -30.9488999 -24.45656449 0 0 Z M-36.109375 56.44921875 C-47.91007285 70.13598926 -49.08124352 90.26572409 -47.82641602 107.54296875 C-46.6133568 120.78201912 -43.35933256 134.9008571 -33.07421875 144.1484375 C-25.89965728 149.41174284 -17.97046559 151.26838966 -9.18359375 150.17578125 C-0.80676724 148.46427228 5.35870083 145.1080494 10.578125 138.25390625 C22.11673476 120.15469044 22.75039792 98.11830002 18.83203125 77.546875 C16.06791829 67.18145141 11.12731209 56.49427926 1.83203125 50.546875 C-11.42514291 43.64662452 -25.56214916 46.11421074 -36.109375 56.44921875 Z " fill="#FFFFFF" transform="translate(975.16796875,301.453125)"/>
<path d="M0 0 C16.99507846 14.54734212 26.89578635 33.97210371 28.97550106 56.27619362 C29.61462999 64.77180133 29.8251738 73.20262316 29.80102539 81.72021484 C29.80074239 83.11142474 29.80090346 84.50263479 29.8014679 85.8938446 C29.80175145 89.622249 29.79592703 93.35062035 29.78889394 97.07901716 C29.78258601 100.99340103 29.78205077 104.9077859 29.78086853 108.82217407 C29.77777694 116.21302741 29.76959322 123.60386571 29.75951904 130.99471247 C29.74618483 140.99722794 29.74084043 150.99974761 29.73501682 161.00226974 C29.72565156 176.73069106 29.70571825 192.45908068 29.6875 208.1875 C2.9575 208.1875 -23.7725 208.1875 -51.3125 208.1875 C-51.33828125 198.64199219 -51.3640625 189.09648437 -51.390625 179.26171875 C-51.41579911 173.20505776 -51.44197426 167.14842833 -51.47265625 161.09179688 C-51.52114261 151.48397052 -51.56560729 141.87624912 -51.58349609 132.26831055 C-51.59654545 125.26972513 -51.62359329 118.27135409 -51.66711307 111.27288944 C-51.68965458 107.5707914 -51.70541511 103.86895703 -51.70438385 100.16678429 C-51.70349292 96.02324274 -51.73386905 91.88047307 -51.76660156 87.73706055 C-51.7615712 86.52360962 -51.75654083 85.31015869 -51.75135803 84.05993652 C-51.86158768 75.00710195 -53.58336858 67.52200284 -58.4375 59.8125 C-66.08156115 52.83313982 -74.49640905 50.82927856 -84.58984375 50.90234375 C-91.77877573 51.45301745 -99.32443279 53.77188418 -104.3125 59.1875 C-111.69816075 69.44948592 -112.60870193 78.7386649 -112.63134766 91.14282227 C-112.64139328 92.41210068 -112.6514389 93.68137909 -112.66178894 94.98912048 C-112.68890759 98.44301026 -112.70418398 101.89685967 -112.71721697 105.35082746 C-112.7329276 108.97033606 -112.7596922 112.58976319 -112.7852478 116.20921326 C-112.83189596 123.05124757 -112.86870729 129.89329744 -112.90192068 136.73540872 C-112.9474171 145.98956791 -113.00823859 155.24362583 -113.06816864 164.49770069 C-113.16207982 179.06091617 -113.23562726 193.62416152 -113.3125 208.1875 C-139.7125 208.1875 -166.1125 208.1875 -193.3125 208.1875 C-193.3125 135.5875 -193.3125 62.9875 -193.3125 -11.8125 C-168.5625 -11.8125 -143.8125 -11.8125 -118.3125 -11.8125 C-117.71665524 -5.25820761 -117.15553514 1.14569259 -116.99609375 7.69921875 C-116.97531265 8.43831985 -116.95453156 9.17742096 -116.93312073 9.93891907 C-116.8688449 12.25087145 -116.80932146 14.56291577 -116.75 16.875 C-116.70669808 18.46289933 -116.66308057 20.05079008 -116.61914062 21.63867188 C-116.51329311 25.48819221 -116.41170091 29.33780289 -116.3125 33.1875 C-115.81145752 32.10283447 -115.31041504 31.01816895 -114.79418945 29.90063477 C-106.81324951 12.75216634 -95.97143927 -1.87744417 -78.3125 -9.8125 C-52.23129433 -19.26919582 -22.42589159 -17.07817898 0 0 Z " fill="#FFFFFF" transform="translate(1306.3125,301.8125)"/>
<path d="M0 0 C27.72 0 55.44 0 84 0 C95.62424345 22.08606256 95.62424345 22.08606256 100.625 33 C101.16987061 34.18045898 101.71474121 35.36091797 102.27612305 36.57714844 C106.73592747 46.29539032 110.96395606 56.09888919 115 66 C116.80729872 63.28905192 118.07651595 60.77427324 119.40625 57.8125 C128.34151679 38.13686203 138.08035625 19.28819618 148 0 C175.39 0 202.78 0 231 0 C226.50988427 8.23187884 221.93531529 16.35839868 217.1875 24.4375 C216.82172852 25.06116455 216.45595703 25.6848291 216.07910156 26.32739258 C210.29713724 36.18188173 204.40582857 45.9658025 198.45159912 55.71694946 C191.39232053 67.28232085 184.5324506 78.95953479 177.70703125 90.6640625 C174.51474227 96.13585176 171.27659651 101.57831572 168 107 C177.76934616 124.23288391 187.79905043 141.31678663 197.89550781 158.35961914 C200.97975561 163.56925966 204.0489259 168.78740156 207.1015625 174.015625 C208.546668 176.48970431 209.9919781 178.96366395 211.4375 181.4375 C211.9724408 182.35316238 211.9724408 182.35316238 212.51818848 183.287323 C218.1953916 192.99776083 223.98349031 202.63327956 229.88647461 212.20874023 C230.43053955 213.09376221 230.97460449 213.97878418 231.53515625 214.890625 C232.013479 215.66438477 232.49180176 216.43814453 232.98461914 217.23535156 C234 219 234 219 234 220 C206.28 220 178.56 220 150 220 C146.37 212.74 142.74 205.48 139 198 C135.2077396 190.83165638 135.2077396 190.83165638 131.4140625 183.6640625 C125.00425589 171.39799998 119.31407115 158.77461026 114 146 C110.6936203 153.00539198 107.41333121 160.01740878 104.30958557 167.11535645 C99.51783543 178.05430537 94.32479572 188.78136961 89.0625 199.5 C88.19176351 201.27980422 87.32131955 203.05975158 86.45117188 204.83984375 C80.68980766 216.62038467 80.68980766 216.62038467 79 220 C51.61 220 24.22 220 -4 220 C-1.36 215.38 1.28 210.76 4 206 C6.25712556 201.98394834 6.25712556 201.98394834 8.51098633 197.96606445 C14.46511433 187.35524017 20.60629356 176.86748301 26.83691406 166.41699219 C32.42413069 157.02480355 37.86442049 147.55423809 43.2409668 138.04003906 C46.31476371 132.61971212 49.43116912 127.2481504 52.7421875 121.96875 C53.60215332 120.58901001 53.60215332 120.58901001 54.47949219 119.18139648 C55.54484765 117.48583743 56.62535451 115.79966569 57.72363281 114.12524414 C58.18866211 113.38395264 58.65369141 112.64266113 59.1328125 111.87890625 C59.54418457 111.2454126 59.95555664 110.61191895 60.37939453 109.95922852 C61.2925592 107.07640143 60.32789397 105.65375519 59 103 C58.1794454 101.42626722 57.32875569 99.86798545 56.453125 98.32421875 C55.94539551 97.42662842 55.43766602 96.52903809 54.91455078 95.60424805 C54.09059814 94.16045776 54.09059814 94.16045776 53.25 92.6875 C52.67362793 91.67276611 52.09725586 90.65803223 51.50341797 89.61254883 C46.26959599 80.4219122 40.93975958 71.28811786 35.59765625 62.16015625 C30.00210268 52.59287478 24.48009689 42.98309889 18.94824219 33.37890625 C16.89833984 29.82368714 14.84418356 26.27095346 12.7890625 22.71875 C11.75576254 20.93167037 10.72257004 19.14452866 9.68942261 17.35736084 C8.70915502 15.66244233 7.72775912 13.96817655 6.74633789 12.27392578 C5.85676392 10.73454346 5.85676392 10.73454346 4.94921875 9.1640625 C4.42674561 8.26123535 3.90427246 7.3584082 3.3659668 6.42822266 C2.18010264 4.32016102 1.08168366 2.16336731 0 0 Z " fill="#FFFFFF" transform="translate(1363,290)"/>
<path d="M0 0 C0.73511307 0.00359528 1.47022614 0.00719055 2.22761536 0.01089478 C2.99829346 0.01074875 3.76897156 0.01060272 4.56300354 0.01045227 C7.12237823 0.01115157 9.68168104 0.01894471 12.24104309 0.02676392 C14.01081299 0.02862804 15.7805834 0.03005197 17.550354 0.03105164 C22.2176505 0.03487728 26.88491607 0.04470796 31.55220032 0.05575562 C37.14721284 0.0677631 42.74223568 0.07237175 48.33725739 0.07820892 C56.84557207 0.0879197 65.35381886 0.10707592 73.86213684 0.12442017 C73.86213684 17.28442017 73.86213684 34.44442017 73.86213684 52.12442017 C86.40213684 52.12442017 98.94213684 52.12442017 111.86213684 52.12442017 C111.86213684 71.59442017 111.86213684 91.06442017 111.86213684 111.12442017 C99.32213684 111.12442017 86.78213684 111.12442017 73.86213684 111.12442017 C73.94778881 122.83401948 74.04161687 134.54347607 74.14966393 146.25289059 C74.19951639 151.69059151 74.2458472 157.12827404 74.28401184 162.56607056 C74.32100446 167.81813251 74.36740186 173.07003635 74.42020035 178.32196236 C74.43867021 180.32128679 74.45380523 182.32064502 74.4654808 184.32002068 C74.48247058 187.1299023 74.51153531 189.93942761 74.54328918 192.74917603 C74.54544937 193.56773575 74.54760956 194.38629547 74.54983521 195.22966003 C74.5504753 204.94836858 74.5504753 204.94836858 78.86213684 213.12442017 C86.26272317 215.59128228 93.09863697 215.1053054 100.72151184 214.13613892 C101.50638977 214.03990234 102.2912677 213.94366577 103.09992981 213.84451294 C105.02114877 213.60838139 106.94171378 213.36693957 108.86213684 213.12442017 C110.14969005 220.57988914 111.43076753 228.03644997 112.70735168 235.49380493 C113.14238387 238.03051946 113.5788972 240.56698044 114.016922 243.10317993 C114.64631087 246.74892566 115.27036556 250.39555034 115.89338684 254.04238892 C116.18868286 255.74264473 116.18868286 255.74264473 116.48994446 257.47724915 C116.67013123 258.53797134 116.85031799 259.59869354 117.03596497 260.69155884 C117.195849 261.62199509 117.35573303 262.55243134 117.52046204 263.51106262 C117.85663715 266.08235483 117.9240337 268.53464761 117.86213684 271.12442017 C86.73305468 278.78581912 49.27926888 282.88914673 20.38557434 265.83926392 C7.37820168 256.99988838 -0.9457015 244.60483945 -4.32536316 229.24942017 C-6.57909112 215.86006821 -6.26870286 202.38927169 -6.23551941 188.85879517 C-6.23365141 186.61150138 -6.23222931 184.36420718 -6.23123169 182.11691284 C-6.22743656 176.23815766 -6.21763233 170.35942768 -6.20652771 164.48068237 C-6.1962486 158.46740052 -6.19172021 152.45411455 -6.18669128 146.44082642 C-6.17600702 134.66867822 -6.15843496 122.89655524 -6.13786316 111.12442017 C-15.37786316 111.12442017 -24.61786316 111.12442017 -34.13786316 111.12442017 C-34.15880882 103.5863082 -34.17884689 96.04830106 -34.18961334 88.51018524 C-34.19490299 85.00015524 -34.20197636 81.49014922 -34.21330261 77.98013306 C-34.22620521 73.95661176 -34.23109228 69.93311602 -34.23551941 65.90957642 C-34.24326134 64.01429955 -34.24326134 64.01429955 -34.25115967 62.08073425 C-34.2512352 60.91960617 -34.25131073 59.75847809 -34.25138855 58.56216431 C-34.25471947 57.01994957 -34.25471947 57.01994957 -34.25811768 55.44657898 C-34.13786316 53.12442017 -34.13786316 53.12442017 -33.13786316 52.12442017 C-31.13821334 52.03684014 -29.13550206 52.0174544 -27.13395691 52.02676392 C-25.9190155 52.02998657 -24.7040741 52.03320923 -23.45231628 52.03652954 C-22.17292175 52.04490845 -20.89352722 52.05328735 -19.57536316 52.06192017 C-18.29210144 52.06643188 -17.00883972 52.0709436 -15.68669128 52.07559204 C-12.50370294 52.08742471 -9.32080554 52.10390948 -6.13786316 52.12442017 C-6.14008377 51.48770889 -6.14230438 50.85099762 -6.14459229 50.19499207 C-6.16664356 43.5932674 -6.18176909 36.99155313 -6.1927948 30.38980103 C-6.19783672 27.92299983 -6.20467006 25.45620164 -6.21330261 22.9894104 C-6.22537441 19.45237488 -6.23109272 15.91537871 -6.23551941 12.37832642 C-6.24068069 11.26792496 -6.24584198 10.1575235 -6.25115967 9.01347351 C-6.25127296 7.48199928 -6.25127296 7.48199928 -6.25138855 5.91958618 C-6.25360916 5.01579727 -6.25582977 4.11200836 -6.25811768 3.18083191 C-6.01806265 -0.92422789 -3.51540524 0.007255 0 0 Z " fill="#FFFFFF" transform="translate(1642.1378631591797,236.87557983398438)"/>
<path d="M0 0 C26.4 0 52.8 0 80 0 C80.04415791 29.55488875 80.0810604 59.1097582 80.10213066 88.66467131 C80.10463183 92.16031804 80.1072205 95.6559647 80.10986328 99.15161133 C80.1103879 99.84748053 80.11091252 100.54334973 80.11145304 101.26030587 C80.12013645 112.50193937 80.13589496 123.74355224 80.15430559 134.98517353 C80.17306225 146.53510255 80.18397934 158.08501712 80.18817699 169.63496107 C80.19077764 176.11606233 80.19686325 182.59711694 80.21146011 189.0782032 C80.22510678 195.18730172 80.22920838 201.29633469 80.22621536 207.40544701 C80.22676237 209.63899213 80.23069734 211.8725396 80.23841095 214.10607147 C80.31364627 237.02917973 79.61932306 261.27179592 63.0390625 279.09375 C45.6091461 295.38838449 22.96036229 300.22889225 -0.125 302.1875 C-1.08245117 302.2714502 -2.03990234 302.35540039 -3.02636719 302.44189453 C-13.4071004 303.22903496 -23.49572962 303 -34 303 C-34 283.53 -34 264.06 -34 244 C-23.11 243.01 -23.11 243.01 -12 242 C-4.09243161 239.00164769 -4.09243161 239.00164769 -2.02492046 234.35585785 C-0.68086879 229.69962801 -0.5744782 225.12402142 -0.60127258 220.30627441 C-0.59462576 219.36022197 -0.58797893 218.41416953 -0.58113068 217.43944883 C-0.56255462 214.28569346 -0.56510237 211.13231928 -0.56762695 207.97851562 C-0.55860652 205.71134915 -0.54827861 203.44418755 -0.53674316 201.17703247 C-0.50918025 195.03306115 -0.49988954 188.88918238 -0.49388909 182.74515724 C-0.48450366 176.32026125 -0.45830008 169.89543434 -0.43388367 163.47058105 C-0.3951792 152.69035389 -0.36682429 141.91015682 -0.34643555 131.12988281 C-0.32541188 120.02894424 -0.29812471 108.92805002 -0.26245117 97.82714844 C-0.26025235 97.14224124 -0.25805352 96.45733405 -0.25578807 95.75167209 C-0.24471807 92.31550044 -0.23352532 88.8793292 -0.22227156 85.44315815 C-0.12915237 56.96213545 -0.0599707 28.48111296 0 0 Z " fill="#FFFFFF" transform="translate(734,290)"/>
<path d="M0 0 C29.04 0 58.08 0 88 0 C84.62492096 11.25026347 84.62492096 11.25026347 83.13745117 15.30566406 C82.80247116 16.22333557 82.46749115 17.14100708 82.12236023 18.08648682 C81.58806145 19.53641022 81.58806145 19.53641022 81.04296875 21.015625 C80.65869217 22.06554626 80.27441559 23.11546753 79.87849426 24.19720459 C78.65087994 27.54913968 77.41924335 30.89958033 76.1875 34.25 C75.40403751 36.38792581 74.62083293 38.52594614 73.83789062 40.6640625 C66.5842181 60.45212797 59.28596404 80.22381189 52 100 C84.01 100 116.02 100 149 100 C147.02 102.64 145.04 105.28 143 108 C142.06800781 109.25039063 141.13601562 110.50078125 140.17578125 111.7890625 C134.51626765 119.37755475 128.77540718 126.88908419 122.90625 134.31640625 C114.4677023 144.99571471 106.15509624 155.77325475 97.90161133 166.59594727 C93.31363774 172.60578185 88.67548873 178.57567442 84.02832031 184.53979492 C78.99120558 191.00550311 73.98927568 197.49731069 69 204 C63.42164405 211.27045726 57.81995395 218.52137581 52.1875 225.75 C47.59534006 231.64434931 43.03091673 237.55844955 38.5 243.5 C33.38228919 250.21103416 28.21563712 256.88245443 23.02832031 263.53979492 C17.99119588 270.00551556 12.99060905 276.49832274 8 283 C7.09004476 284.18244638 6.17988276 285.36473367 5.26953125 286.546875 C4.81674805 287.1349292 4.36396484 287.7229834 3.89746094 288.32885742 C2.64131184 289.96015127 1.38511078 291.5914051 0.12890625 293.22265625 C-1.59498693 295.47162515 -3.30593598 297.72853796 -5 300 C-5.66 299.67 -6.32 299.34 -7 299 C2.60717508 269.01001019 12.25583528 239.0353276 22.07592773 209.11425781 C27.11139086 193.76127192 32.05530683 178.38348987 37 163 C13.24 163 -10.52 163 -35 163 C-33.87499798 151.74997979 -33.87499798 151.74997979 -32.80570984 146.86938477 C-32.56610535 145.76256851 -32.32650085 144.65575226 -32.07963562 143.51539612 C-31.81834366 142.33597946 -31.5570517 141.15656281 -31.2878418 139.94140625 C-30.87298019 138.03674843 -30.87298019 138.03674843 -30.44973755 136.09361267 C-29.69634106 132.63537429 -28.9360281 129.17869045 -28.17438865 125.72225952 C-27.37277699 122.07874503 -26.57760373 118.43382562 -25.7816925 114.7890625 C-24.27169868 107.87893163 -22.7559161 100.97008404 -21.23805314 94.06167793 C-19.52559362 86.26615786 -17.8198718 78.46916863 -16.11461008 70.67207146 C-12.65663997 54.86242022 -9.19315978 39.05398947 -5.71383286 23.24902344 C-5.04977919 20.22657092 -4.38967989 17.20328557 -3.73086548 14.1796875 C-3.36857623 12.52602714 -3.00622648 10.87238003 -2.64379883 9.21875 C-2.4869823 8.49345093 -2.33016577 7.76815186 -2.16859722 7.02087402 C-1.11347177 2.22694353 -1.11347177 2.22694353 0 0 Z " fill="#FFFFFF" transform="translate(51,217)"/>
<path d="M0 0 C1.01356567 -0.02114868 1.01356567 -0.02114868 2.04760742 -0.04272461 C8.5261181 0.01834237 12.80236966 1.54837354 19.5 3.375 C19.5 25.815 19.5 48.255 19.5 71.375 C12.57 70.385 5.64 69.395 -1.5 68.375 C-14.95234673 67.59027977 -26.90927761 69.49389107 -37.5 78.375 C-44.80524949 85.2858787 -48.50320378 95.02486101 -48.7784729 104.92430115 C-48.80189565 107.13361434 -48.81464005 109.34305689 -48.81884766 111.55249023 C-48.82889328 112.76295517 -48.8389389 113.9734201 -48.84928894 115.2205658 C-48.87479337 118.52173611 -48.89170146 121.82273633 -48.90471697 125.12396502 C-48.92040168 128.58066307 -48.94717473 132.03727526 -48.9727478 135.49391174 C-49.01944142 142.03143375 -49.05623092 148.56897208 -49.08942068 155.10657507 C-49.1314684 163.28400002 -49.1868103 171.46132819 -49.2421875 179.63867188 C-49.34085656 194.21739468 -49.41948893 208.79614051 -49.5 223.375 C-75.9 223.375 -102.3 223.375 -129.5 223.375 C-129.5 150.775 -129.5 78.175 -129.5 3.375 C-104.09 3.375 -78.68 3.375 -52.5 3.375 C-52.5 17.235 -52.5 31.095 -52.5 45.375 C-51.84 45.375 -51.18 45.375 -50.5 45.375 C-50.36464844 44.74335938 -50.22929688 44.11171875 -50.08984375 43.4609375 C-46.42496107 28.23082626 -39.17336539 14.85045652 -25.625 6.4375 C-17.15699781 1.92123217 -9.52515995 0.14207232 0 0 Z " fill="#FFFFFF" transform="translate(682.5,286.625)"/>
<path d="M0 0 C8.89507658 6.17665859 15.51260518 14.00199457 17.83203125 24.71484375 C19.09300959 34.73699449 16.88739777 43.64648556 11.14453125 51.96484375 C4.07304672 60.61367696 -5.16845409 65.88446925 -16.16796875 67.71484375 C-27.71101532 68.75511831 -38.15207631 66.04257526 -47.16796875 58.71484375 C-49.98046875 56.15234375 -49.98046875 56.15234375 -52.16796875 53.71484375 C-53.18890625 52.60109375 -53.18890625 52.60109375 -54.23046875 51.46484375 C-59.98596268 43.2957556 -61.985207 35.137261 -60.54296875 25.27734375 C-58.24519202 14.39714267 -52.93941133 7.41252957 -44.48046875 0.52734375 C-30.38694903 -7.18420478 -14.0735948 -8.34272556 0 0 Z " fill="#FFFFFF" transform="translate(795.16796875,200.28515625)"/>
</svg>
